<?xml version="1.0" standalone="yes"?>
<svg xmlns="http://www.w3.org/2000/svg" width="1140" height="660">
<path style="fill:#010101; stroke:none;" d="M0 0L0 30L30 30L30 0L0 0z"/>
<path style="fill:#424458; stroke:none;" d="M30 0L30 30L0 30L0 660L1140 660L1140 30L1110 30L1110 0L30 0z"/>
<path style="fill:#010101; stroke:none;" d="M1110 0L1110 30L1140 30L1140 0L1110 0z"/>
<path style="fill:#b597f4; stroke:none;" d="M30 30L30 600L1110 600L1110 30L30 30z"/>
<path style="fill:#424458; stroke:none;" d="M60 60L60 570L1080 570L1080 60L60 60z"/>
<path style="fill:#ff79c7; stroke:none;" d="M90 90L90 180L180 180L180 90L90 90z"/>
<path style="fill:#b597f4; stroke:none;" d="M210 90L210 180L330 180L330 90L210 90M360 90L360 180L480 180L480 90L360 90M510 90L510 180L630 180L630 90L510 90M660 90L660 180L780 180L780 90L660 90z"/>
<path style="fill:#ff79c7; stroke:none;" d="M810 90L810 180L1050 180L1050 90L810 90z"/>
<path style="fill:#b597f4; stroke:none;" d="M90 210L90 300L240 300L240 210L90 210M270 210L270 300L390 300L390 210L270 210M420 210L420 300L540 300L540 210L420 210M570 210L570 300L690 300L690 210L570 210M720 210L720 300L840 300L840 210L720 210M870 210L870 300L1050 300L1050 210L870 210M90 330L90 420L270 420L270 330L90 330M300 330L300 420L420 420L420 330L300 330M450 330L450 420L570 420L570 330L450 330M600 330L600 420L720 420L720 330L600 330M750 330L750 420L1050 420L1050 330L750 330M90 450L90 540L210 540L210 450L90 450M240 450L240 540L360 540L360 450L240 450z"/>
<path style="fill:#51fb7b; stroke:none;" d="M390 450L390 540L750 540L750 450L390 450z"/>
<path style="fill:#b597f4; stroke:none;" d="M780 450L780 540L900 540L900 450L780 450M930 450L930 540L1050 540L1050 450L930 450z"/>
</svg>
